<svg xmlns="http://www.w3.org/2000/svg" xmlns:xlink="http://www.w3.org/1999/xlink" width="342.374" height="97.55" viewBox="0 0 342.374 97.55">
  <defs>
    <linearGradient id="linear-gradient" y1="0.5" x2="1" y2="0.5" gradientUnits="objectBoundingBox">
      <stop offset="0" stop-color="#dae3fe"/>
      <stop offset="1" stop-color="#e9effd"/>
    </linearGradient>
    <linearGradient id="linear-gradient-3" x1="1" y1="0.5" x2="0" y2="0.5" xlink:href="#linear-gradient"/>
  </defs>
  <g id="login_footer" data-name="login footer" transform="translate(-9.225 -685.005)" opacity="0.8">
    <g id="Group_48206" data-name="Group 48206" transform="translate(-133.878 600.155)">
      <g id="Group_48087" data-name="Group 48087" transform="translate(210.71 130.835)">
        <path id="Path_266759" data-name="Path 266759" d="M214.277,188.023l-9.076.492a28.623,28.623,0,0,1-.78,3.455,2.323,2.323,0,0,1-2.363,1.477c-4.6-.172-17.02-.7-23.1-1.42a2.275,2.275,0,0,1-1.9-1.346l-.025-.074a1.89,1.89,0,0,1-.082-.386c-.435-4.866-1.608-20.048-.1-28.82a2.1,2.1,0,0,1,1.723-1.608,66.059,66.059,0,0,1,29.9.771c.172.041.336.082.509.131a2.164,2.164,0,0,1,1.477,1.247,1.726,1.726,0,0,1,.115.739,123.625,123.625,0,0,1-2.766,19.293Z" transform="translate(-176.109 -158.439)" fill="#3381ff"/>
        <path id="Path_266760" data-name="Path 266760" d="M214.485,188.488l-9.076.492a28.623,28.623,0,0,1-.78,3.455,2.323,2.323,0,0,1-2.363,1.477c-4.6-.172-17.02-.7-23.1-1.42a2.275,2.275,0,0,1-1.9-1.346c6.138.427,24.405,1.641,25.423.895,1.231-.886,1.584-4.374,1.584-4.374h7.566l-5.638-4.916c3.758-13.655,2.56-21.312,2.486-21.722.172.041.336.082.509.131a2,2,0,0,1,1.592,1.986,123.625,123.625,0,0,1-2.766,19.293Z" transform="translate(-176.318 -158.904)" fill="#420005" opacity="0.21"/>
        <path id="Path_266761" data-name="Path 266761" d="M210.47,161.944a.008.008,0,0,0-.008-.008c-4.957-2.437-19.67-1.4-27.327.328s-6.073,28.418-6.073,28.418l-.025-.074a1.89,1.89,0,0,1-.082-.386c-.435-4.866-1.608-20.048-.1-28.82a2.1,2.1,0,0,1,1.723-1.608,66.059,66.059,0,0,1,29.9.771c.172.041.336.082.509.131A2.164,2.164,0,0,1,210.47,161.944Z" transform="translate(-176.109 -158.439)" fill="#08fcfc" opacity="0.28"/>
      </g>
    </g>
    <g id="Group_48207" data-name="Group 48207" transform="translate(-65.22 643.482)">
      <g id="Group_48038" data-name="Group 48038">
        <circle id="Ellipse_634" data-name="Ellipse 634" cx="15.949" cy="15.949" r="15.949" transform="translate(371.708 116.518) rotate(-45)" fill="#ffc400"/>
        <path id="Path_266694" data-name="Path 266694" d="M392.3,124.181s-8.127-4.823-5.88-10.6,8.46-2.436,8.322-.025c0,0,5.816-3.592,8.187,2.034S395.005,123.721,392.3,124.181Z" fill="#fff"/>
      </g>
      <g id="Group_48074" data-name="Group 48074">
        <path id="Path_266740" data-name="Path 266740" d="M391.524,132.264A15.985,15.985,0,0,0,403.942,103.9c.517.786,6.238,9.76-3.76,17.727a25.308,25.308,0,0,1-2.573,1.816,23.673,23.673,0,0,1-3.3,1.707,13.692,13.692,0,0,1-4.476,1.092,9.446,9.446,0,0,1-2.235-.08c-6.518-.994-9.04-8.123-9.04-8.123s-.08.669-.105,1.794A16,16,0,0,0,391.524,132.264Z" fill="#420005" opacity="0.37"/>
      </g>
    </g>
    <g id="Group_48208" data-name="Group 48208" transform="translate(35.388 456.554)">
      <g id="Group_48040" data-name="Group 48040">
        <circle id="Ellipse_635" data-name="Ellipse 635" cx="18.268" cy="18.268" r="18.268" transform="matrix(0.726, -0.688, 0.688, 0.726, 88.719, 253.593)" fill="#ffc400"/>
        <path id="Path_266697" data-name="Path 266697" d="M115.3,263.306s-10.608-2.153-10.354-9.243,8.23-5.825,8.99-3.166c0,0,4.936-6.078,9.622-.886S118.061,261.786,115.3,263.306Z" fill="#fff"/>
      </g>
      <g id="Group_48083" data-name="Group 48083">
        <path id="Path_266753" data-name="Path 266753" d="M108.979,271.545a18.26,18.26,0,0,1,1.8-35.325c-.93.539-13.511,6.786-7.366,20.033a29.146,29.146,0,0,0,1.7,3.17,27.206,27.206,0,0,0,2.5,3.43,15.63,15.63,0,0,0,4.016,3.4,10.744,10.744,0,0,0,2.324,1.059c7.167,2.315,15.537-3.681,15.537-3.681s-.26.725-.809,1.887A18.284,18.284,0,0,1,108.979,271.545Z" fill="#420005" opacity="0.37"/>
      </g>
    </g>
    <g id="Group_48209" data-name="Group 48209" transform="translate(-116.753 439.929)">
      <g id="Group_48088" data-name="Group 48088" transform="translate(353.86 260.74)">
        <path id="Path_266762" data-name="Path 266762" d="M395.84,290.911a2.387,2.387,0,0,1-2.051,1.752,173.647,173.647,0,0,1-30.225.663s-.272-1.053-.526-2.206c-.127-.581-.254-1.18-.345-1.688,0,0-4.974,1.026-8.832-.318l7.742-5.165s-.681-13.388-.581-19.606a2.387,2.387,0,0,1,2.115-2.333c5.7-.672,22.147-2.305,32.122-.309.163.027.318.054.472.091a2.4,2.4,0,0,1,1.9,2.3C397.728,269.136,397.818,283.4,395.84,290.911Z" transform="translate(-353.86 -260.74)" fill="#3381ff"/>
        <path id="Path_266763" data-name="Path 266763" d="M397.628,264.089c-6.59-.517-30.026-.39-32.894.009s-1.289,19.361-1.289,19.361-3.1,4.139-3.3,4.221c.227-.064,3.3-.98,3.3-.98l.118,6.626s-.608-2.369-.871-3.894c0,0-4.974,1.026-8.832-.318l7.742-5.165s-.681-13.388-.581-19.606a2.387,2.387,0,0,1,2.115-2.333c5.791-.681,22.674-2.36,32.594-.218A2.4,2.4,0,0,1,397.628,264.089Z" transform="translate(-353.86 -260.74)" fill="#08fcfc" opacity="0.28"/>
        <path id="Path_266764" data-name="Path 266764" d="M396.773,291.009a2.387,2.387,0,0,1-2.051,1.752,173.647,173.647,0,0,1-30.225.663s-.272-1.053-.526-2.206c11.709,1.035,29.527,1.852,31.042-2.532,1.779-5.146,1.416-20.459,1.18-26.885.163.027.318.054.472.091a2.4,2.4,0,0,1,1.9,2.3C398.661,269.234,398.752,283.493,396.773,291.009Z" transform="translate(-354.793 -260.838)" fill="#420005" opacity="0.21"/>
      </g>
    </g>
    <g id="Group_48210" data-name="Group 48210" transform="translate(-51.607 604.262)">
      <g id="Group_48205" data-name="Group 48205" transform="translate(-57.311 14.324)">
        <g id="Group_48037" data-name="Group 48037">
          <circle id="Ellipse_633" data-name="Ellipse 633" cx="11.066" cy="11.066" r="11.066" transform="matrix(0.902, -0.432, 0.432, 0.902, 168.154, 84.382)" fill="#ffc400"/>
          <path id="Path_266693" data-name="Path 266693" d="M180.977,96.544s-6.586-4.207-4.476-9.591,7.159-2.49,6.946-.265c0,0,5-3.478,6.75,1.637S183.257,96.042,180.977,96.544Z" fill="#fff"/>
        </g>
        <g id="Group_48086" data-name="Group 48086">
          <path id="Path_266758" data-name="Path 266758" d="M188.007,99.3a10.964,10.964,0,0,1-14.232-15.764c-.166.624-1.942,7.7,6.291,10.72a17.483,17.483,0,0,0,2.069.623,16.265,16.265,0,0,0,2.518.4,9.369,9.369,0,0,0,3.149-.261,6.434,6.434,0,0,0,1.437-.536c4.026-2.061,4.12-7.247,4.12-7.247s.2.419.458,1.145A10.978,10.978,0,0,1,188.007,99.3Z" fill="#420005" opacity="0.37"/>
        </g>
      </g>
    </g>
    <g id="Group_48211" data-name="Group 48211" transform="translate(-33.961 595.568)">
      <g id="Group_48036" data-name="Group 48036">
        <circle id="Ellipse_632" data-name="Ellipse 632" cx="8.654" cy="8.654" r="8.654" transform="translate(230.738 135.421)" fill="#ffc400"/>
        <path id="Path_266692" data-name="Path 266692" d="M239.752,148.354s-5.025-1.02-4.9-4.379,3.9-2.76,4.259-1.5c0,0,2.338-2.88,4.559-.42S241.059,147.634,239.752,148.354Z" fill="#fff"/>
      </g>
      <g id="Group_48073" data-name="Group 48073">
        <path id="Path_266739" data-name="Path 266739" d="M235.341,152.167a8.727,8.727,0,0,0,11.328-12.547c.132.5,1.546,6.133-5.007,8.533a13.891,13.891,0,0,1-1.647.5,12.9,12.9,0,0,1-2,.314,7.469,7.469,0,0,1-2.507-.207,5.137,5.137,0,0,1-1.143-.427c-3.2-1.64-3.28-5.768-3.28-5.768s-.157.333-.364.911A8.736,8.736,0,0,0,235.341,152.167Z" fill="#420005" opacity="0.37"/>
      </g>
    </g>
    <g id="Group_48213" data-name="Group 48213" transform="translate(319.918 689.855)">
      <rect id="Rectangle_5127" data-name="Rectangle 5127" width="19.492" height="15.15" rx="3" fill="#f70"/>
      <path id="Path_266406" data-name="Path 266406" d="M1263.1,881.826h12.173a.49.49,0,0,0,.422-.738l-4.819-8.193a.49.49,0,0,0-.868.045l-2.327,5.1a.49.49,0,0,1-.777.158l-.941-.863a.49.49,0,0,0-.733.081l-2.532,3.641A.49.49,0,0,0,1263.1,881.826Z" transform="translate(-1259.984 -868.942)" fill="url(#linear-gradient)"/>
      <circle id="Ellipse_618" data-name="Ellipse 618" cx="1.75" cy="1.75" r="1.75" transform="translate(12.834 2.758) rotate(-22.5)" fill="url(#linear-gradient)"/>
    </g>
    <g id="Group_48214" data-name="Group 48214" transform="translate(9.225 724.563)">
      <rect id="Rectangle_5127-2" data-name="Rectangle 5127" width="16.538" height="12.854" rx="2" transform="translate(0)" fill="#f70"/>
      <path id="Path_266406-2" data-name="Path 266406" d="M1273.351,880.436h-10.328a.416.416,0,0,1-.358-.626l4.089-6.951a.416.416,0,0,1,.737.038l1.974,4.326a.416.416,0,0,0,.659.134l.8-.732a.416.416,0,0,1,.622.069l2.148,3.089A.416.416,0,0,1,1273.351,880.436Z" transform="translate(-1259.453 -869.504)" fill="url(#linear-gradient-3)"/>
      <ellipse id="Ellipse_618-2" data-name="Ellipse 618" cx="1.485" cy="1.485" rx="1.485" ry="1.485" transform="translate(4.513 5.084) rotate(-157.5)" fill="url(#linear-gradient)"/>
    </g>
  </g>
</svg>
