<svg xmlns="http://www.w3.org/2000/svg" xmlns:xlink="http://www.w3.org/1999/xlink" width="289.304" height="263.895" viewBox="0 0 289.304 263.895">
  <defs>
    <clipPath id="clip-path">
      <path id="Path_266572" data-name="Path 266572" d="M194.591,232.173s-20.565-2.435-34.094,8.117-25.165,54.659-24.894,75.765,8.118,31.659,27.87,40.317,56.553,5.412,77.118-1.082,27.329-29.223,27.058-41.4-13.8-26.247-18.4-29.223-17.588-9.2-24.083-18.941S209.2,234.879,194.591,232.173Z" transform="translate(-135.598 -231.93)" fill="#0f4c81" stroke="#263238" stroke-linecap="round" stroke-linejoin="round" stroke-width="1"/>
    </clipPath>
    <clipPath id="clip-path-2">
      <path id="Path_266580" data-name="Path 266580" d="M207.009,234.845s-7.368,2.368-8.42,4.21-.264,14.736-.264,16.315.921-.921,1.711-2.763,3.552-4.6,4.474-4.342,1.447,1.316,1.447,3.026,2.105,4.079,3.947,5.4,3.552,2.631,3.552,2.631,3.815-5.526,4.737-6.973.789-4.474.921-5.526,2.5,2.894,3.026,1.842-1.184-1.974-3.026-4.868-1.316-5.921-4.079-8.025S209.114,234.318,207.009,234.845Z" transform="translate(-198.041 -234.316)" fill="#fff" stroke="#263238" stroke-linecap="round" stroke-linejoin="round" stroke-width="1"/>
    </clipPath>
    <clipPath id="clip-path-3">
      <path id="Path_266585" data-name="Path 266585" d="M181.065,300.66s-4.539-6.513-10.065-7.1-12.236,3.947-12.434,5.526-1.579,10.065-.592,11.249,4.737,2.171,12.039-.2S180.276,304.8,181.065,300.66Z" transform="translate(-157.622 -293.502)" fill="#fff" stroke="#263238" stroke-linecap="round" stroke-linejoin="round" stroke-width="1"/>
    </clipPath>
    <clipPath id="clip-path-4">
      <path id="Path_266590" data-name="Path 266590" d="M165.764,301.345s-7.406,2.94-7.7,8.684c-.161,3.178,5.131,4.539,10.657,4.539s13.42-6.908,18.552-9.868,16.973-9.868,18.354-10.46,6.118.987,8.092,1.579a26.694,26.694,0,0,0,5.723.592s2.763,4.342,4.145,4.342-2.96-6.513-3.552-7.894-10.263-4.539-11.447-4.539-28.814,6.908-32.959,8.486S165.764,301.345,165.764,301.345Z" transform="translate(-158.063 -288.319)" fill="#fff" stroke="#263238" stroke-linecap="round" stroke-linejoin="round" stroke-width="1"/>
    </clipPath>
    <clipPath id="clip-path-5">
      <path id="Path_266596" data-name="Path 266596" d="M227.679,292.069l-21.142,14.953,48.353-1.382L271.1,292.267Z" transform="translate(-206.537 -292.069)" fill="#fff" stroke="#263238" stroke-linecap="round" stroke-linejoin="round" stroke-width="1"/>
    </clipPath>
    <clipPath id="clip-path-6">
      <path id="Path_266601" data-name="Path 266601" d="M253.568,304.528s17.368-15.2,34.538-20.328,20.723-4.342,20.328,3.355-8.684,47.958-14.21,58.221-12.434,29.012-12.236,32.564,6.908,14.013,12.828,17.762,5.329,8.289,1.579,9.079-8.092,2.171-20.92-6.118-18.157-20.131-17.368-23.091,9.079-6.908,12.434-12.828,8.881-28.025,9.276-38.09a59.806,59.806,0,0,1,3.947-18.552s-21.71,3.947-28.025,7.894Z" transform="translate(-253.568 -280.941)" fill="#fff" stroke="#263238" stroke-linecap="round" stroke-linejoin="round" stroke-width="1"/>
    </clipPath>
    <clipPath id="clip-path-7">
      <path id="Path_266608" data-name="Path 266608" d="M270.541,363.143a14.882,14.882,0,0,1-.838,1.295,20.282,20.282,0,0,1,11.1,4.626,36.108,36.108,0,0,1,2.7,2.61c3.783-5.078,8.036-21.117,12.838-27.714,12.406-17.044,11.7-48.708,12.093-56.405s-3.158-8.486-20.328-3.355-34.538,20.328-34.538,20.328l2.171,9.868c6.315-3.947,28.025-7.894,28.025-7.894a59.806,59.806,0,0,0-3.947,18.552C279.422,335.118,273.9,357.223,270.541,363.143Z" transform="translate(-253.568 -280.941)" fill="#263238" stroke="#263238" stroke-linecap="round" stroke-linejoin="round" stroke-width="1"/>
    </clipPath>
    <clipPath id="clip-path-8">
      <path id="Path_266614" data-name="Path 266614" d="M185.72,310.888s-6.315,3.552-8.486,7.5,7.17,10.526,17.038,10.132S222.231,317.4,222.231,317.4s.2,17.368,3.552,23.683,18.749,21.71,24.867,25.657,26.644,18.749,29.8,21.117,9.079,6.71,10.46,6.908S306.7,377.4,310.056,371.478s6.315-18.354,5.131-21.117-3.552-.395-5.921,1.579-24.078,16.381-26.051,17.368a21.661,21.661,0,0,1-3.355,1.382s-17.762-16.973-27.236-30-10.263-29.8-13.815-36.117-8.684-9.079-16.381-8.289S198.746,301.218,185.72,310.888Z" transform="translate(-176.917 -296.152)" fill="#fff" stroke="#263238" stroke-linecap="round" stroke-linejoin="round" stroke-width="1"/>
    </clipPath>
    <clipPath id="clip-path-9">
      <path id="Path_266619" data-name="Path 266619" d="M277.975,369.46c-4.174-4.071-19.831-25.078-26.01-37.155-9.055-17.7-10.03-23.73-13.582-30.045s-8.918-6.807-16.615-6.018a91.124,91.124,0,0,0-38.366,11.8s-7.092,3.856-9.263,7.8,5.732,13.886,19.472,12.631c9.835-.9,27.959-11.118,27.959-11.118s.2,17.368,3.552,23.683,18.749,21.71,24.867,25.657c3.88,2.5,13.551,9.37,20.915,14.665C272.754,374.754,276.016,371.133,277.975,369.46Z" transform="translate(-173.784 -295.956)" fill="#0af" stroke="#263238" stroke-linecap="round" stroke-linejoin="round" stroke-width="1"/>
    </clipPath>
    <clipPath id="clip-path-10">
      <path id="Path_266625" data-name="Path 266625" d="M339.562,385.6c3.355-5.921,6.315-18.354,5.131-21.117-.686-1.6-1.771-1.475-3.021-.7.831,3.692-.008,10.806-4.084,18.467-3.637,6.837-14.879,18.92-20.543,24.8a13.226,13.226,0,0,0,3.372,1.839C321.8,409.088,336.207,391.523,339.562,385.6Z" transform="translate(-317.046 -363.23)" fill="#fff" stroke="#263238" stroke-linecap="round" stroke-linejoin="round" stroke-width="1"/>
    </clipPath>
    <clipPath id="clip-path-11">
      <path id="Path_266632" data-name="Path 266632" d="M296.007,420.866a26.018,26.018,0,0,1-5.26-4.732,107.1,107.1,0,0,1-14.279-6.912c-5.131-3.158-3.947-5.131-6.908-8.092-2.271-2.271-6.741-2.566-8.7-2.581a5.392,5.392,0,0,0-1.56,2.187c-.789,2.96,4.539,14.8,17.368,23.091s17.17,6.908,20.92,6.118S301.927,424.616,296.007,420.866Z" transform="translate(-259.222 -398.549)" fill="#fff" stroke="#263238" stroke-linecap="round" stroke-linejoin="round" stroke-width="1"/>
    </clipPath>
    <clipPath id="clip-path-12">
      <path id="Path_266636" data-name="Path 266636" d="M296.994,422.67c-5.131-2.96-15.591-4.934-22.3-9.473s-4.934-8.486-9.868-11.644a5.029,5.029,0,0,0-5.54-.317c-.685,3.078,4.657,14.791,17.382,23.013,12.828,8.289,17.17,6.908,20.92,6.118,2.492-.524,3.575-2.708,2.293-5.213A10.852,10.852,0,0,0,296.994,422.67Z" transform="translate(-259.226 -400.553)" fill="#263238" stroke="#263238" stroke-linecap="round" stroke-linejoin="round" stroke-width="1"/>
    </clipPath>
    <clipPath id="clip-path-13">
      <path id="Path_266647" data-name="Path 266647" d="M206.721,221.959s.92,9.971,1.307,13.116,1.27,12.2,2.178,15.189,5.853,8.2,6.332,6.993,2.925-9.332,1.944-14.166-1.277-9.035-.667-10.245a9.915,9.915,0,0,1,2.795-2.611,77.747,77.747,0,0,1-7.412-4.317C209.681,223.554,207.206,220.886,206.721,221.959Z" transform="translate(-206.721 -221.715)" fill="#fff" stroke="#263238" stroke-linecap="round" stroke-linejoin="round" stroke-width="1"/>
    </clipPath>
    <clipPath id="clip-path-14">
      <path id="Path_266652" data-name="Path 266652" d="M205.1,217.35s5.686,4.759,10.048,6.477,11.06,1.627,12-.644-1.654-20.207-3.9-24.93-4.656-4.8-8.621-5.158-11.913,2.874-13.309,6.709.193,9.27,1.351,12.488A23.769,23.769,0,0,0,205.1,217.35Z" transform="translate(-200.773 -193.067)" fill="#fff" stroke="#263238" stroke-linecap="round" stroke-linejoin="round" stroke-width="1"/>
    </clipPath>
    <clipPath id="clip-path-15">
      <path id="Path_266669" data-name="Path 266669" d="M206.673,217.186s-2.551-3.68-5.241-2.2-.594,6.724,1.024,8.55,4.749-1.561,5.059-2.432" transform="translate(-200.14 -214.636)" fill="#fff" stroke="#263238" stroke-linecap="round" stroke-linejoin="round" stroke-width="1"/>
    </clipPath>
  </defs>
  <g id="onboardingSvg" transform="translate(-66.182 -98.187)">
    <g id="Background_Simple" data-name="Background Simple" transform="translate(66.182 104.001)">
      <g id="Group_47973" data-name="Group 47973">
        <path id="Path_266565" data-name="Path 266565" d="M337.968,286.7c5.9-48.2-22.692-112.256-52.336-138.709-53.519-47.755-97.981-38.52-132.562-21.414s-39.522,74.211-63.4,100.048-37.46,60.59-1.232,95.185,65.455,17.016,103.329,14.825,88.1,15.081,115.272.06C326.013,326.209,335.36,308.006,337.968,286.7Z" transform="translate(-66.182 -112.745)" opacity="0.14"/>
      </g>
    </g>
    <g id="Background" transform="translate(72.664 71.222)">
      <g id="Group_47975" data-name="Group 47975">
        <g id="Group_47974" data-name="Group 47974" transform="translate(0 27.465)">
          <line id="Line_73" data-name="Line 73" y1="177.575" transform="translate(115.428)" fill="none" stroke="#000" stroke-linecap="round" stroke-linejoin="round" stroke-width="1"/>
          <path id="Path_266567" data-name="Path 266567" d="M74.393,333.177H186.408l170.177,54.93" transform="translate(-74.393 -153.845)" fill="none" stroke="#000" stroke-linecap="round" stroke-linejoin="round" stroke-width="1"/>
        </g>
      </g>
    </g>
    <g id="Character" transform="translate(85.631 154.503)">
      <g id="Group_48019" data-name="Group 48019">
        <g id="Group_48017" data-name="Group 48017" transform="translate(11.267)">
          <g id="Group_47976" data-name="Group 47976" transform="translate(0 140.21)">
            <ellipse id="Ellipse_624" data-name="Ellipse 624" cx="90.743" cy="28.273" rx="90.743" ry="28.273"/>
          </g>
          <g id="Group_47978" data-name="Group 47978" transform="translate(24.084 43.588)">
            <path id="Path_266570" data-name="Path 266570" d="M194.591,232.173s-20.565-2.435-34.094,8.117-25.165,54.659-24.894,75.765,8.118,31.659,27.87,40.317,56.553,5.412,77.118-1.082,27.329-29.223,27.058-41.4-13.8-26.247-18.4-29.223-17.588-9.2-24.083-18.941S209.2,234.879,194.591,232.173Z" transform="translate(-135.598 -231.93)" fill="#0bd4cd"/>
            <g id="Group_47977" data-name="Group 47977" clip-path="url(#clip-path)">
              <path id="Path_266571" data-name="Path 266571" d="M244.362,356.035c-7.775-1.05-17-3.161-23.977-7.4-14.736-8.947-18.42-25.789-23.683-32.1s-14.736-5.789-18.946-12.631,2.631-57.365-9.473-60.523a27.7,27.7,0,0,0-7.553-1.078c-.077.059-.156.113-.233.172-13.529,10.553-25.165,54.659-24.894,75.765s8.118,31.659,27.87,40.317,56.553,5.412,77.118-1.082A34.857,34.857,0,0,0,244.362,356.035Z" transform="translate(-135.598 -234.113)" opacity="0.13"/>
            </g>
            <path id="Path_266573" data-name="Path 266573" d="M194.591,232.173s-20.565-2.435-34.094,8.117-25.165,54.659-24.894,75.765,8.118,31.659,27.87,40.317,56.553,5.412,77.118-1.082,27.329-29.223,27.058-41.4-13.8-26.247-18.4-29.223-17.588-9.2-24.083-18.941S209.2,234.879,194.591,232.173Z" transform="translate(-135.598 -231.93)" fill="none" stroke="#263238" stroke-linecap="round" stroke-linejoin="round" stroke-width="1"/>
          </g>
          <g id="Group_47984" data-name="Group 47984" transform="translate(41.47 45.471)">
            <g id="Group_47979" data-name="Group 47979" transform="translate(5.483 6.344)">
              <path id="Path_266574" data-name="Path 266574" d="M192.593,243.9s-13.42,2.566-15.789,4.934-12.236,39.472-12.236,39.472a14.681,14.681,0,0,1,8.289.395c3.947,1.579,4.342,5.723,4.737,7.7a70.623,70.623,0,0,1,.592,7.1s39.893-3.564,48.38-5.537,21.4-2.881,21.4-2.881-21.823-49.211-25.178-50.987-17.368-1.974-19.341-1.579S192.593,243.9,192.593,243.9Z" transform="translate(-164.568 -242.353)" fill="#f7ff00" stroke="#263238" stroke-linecap="round" stroke-linejoin="round" stroke-width="1"/>
              <line id="Line_74" data-name="Line 74" y1="27.433" x2="3.355" transform="translate(14.802 19.71)" fill="none" stroke="#fff" stroke-linecap="round" stroke-linejoin="round" stroke-width="1"/>
              <line id="Line_75" data-name="Line 75" y1="5.921" x2="4.539" transform="translate(17.368 21.091)" fill="none" stroke="#fff" stroke-linecap="round" stroke-linejoin="round" stroke-width="1"/>
              <path id="Path_266575" data-name="Path 266575" d="M203.818,279.964s12.828-4.145,21.315-4.145" transform="translate(-172.833 -249.399)" fill="none" stroke="#fff" stroke-linecap="round" stroke-linejoin="round" stroke-width="1"/>
              <path id="Path_266576" data-name="Path 266576" d="M218.927,266.736l-.859,6.578s2.171,0,2.368.987a2.62,2.62,0,0,1-.789,1.974s6.118,3.355,6.908,7.3" transform="translate(-175.833 -247.487)" fill="none" stroke="#fff" stroke-linecap="round" stroke-linejoin="round" stroke-width="1"/>
            </g>
            <g id="Group_47981" data-name="Group 47981" transform="translate(31.908)">
              <path id="Path_266577" data-name="Path 266577" d="M207.009,234.845s-7.368,2.368-8.42,4.21-.264,14.736-.264,16.315.921-.921,1.711-2.763,3.552-4.6,4.474-4.342,1.447,1.316,1.447,3.026,2.105,4.079,3.947,5.4,3.552,2.631,3.552,2.631,3.815-5.526,4.737-6.973.789-4.474.921-5.526,2.5,2.894,3.026,1.842-1.184-1.974-3.026-4.868-1.316-5.921-4.079-8.025S209.114,234.318,207.009,234.845Z" transform="translate(-198.041 -234.316)" fill="#fff"/>
              <g id="Group_47980" data-name="Group 47980" clip-path="url(#clip-path-2)">
                <path id="Path_266578" data-name="Path 266578" d="M198.589,239.189c-.7,1.229-.585,7.377-.429,11.8,1.678-2.165,5.142-6.248,7.151-5.476,2.555.983,3.537,8.256,3.537,8.256l-1.727-18.82-.113.028S199.641,237.347,198.589,239.189Z" transform="translate(-198.041 -234.45)" fill="#0f4c81"/>
                <path id="Path_266579" data-name="Path 266579" d="M198.589,239.189c-.7,1.229-.585,7.377-.429,11.8,1.678-2.165,5.142-6.248,7.151-5.476,2.555.983,3.537,8.256,3.537,8.256l-1.727-18.82-.113.028S199.641,237.347,198.589,239.189Z" transform="translate(-198.041 -234.45)" fill="#fff" opacity="0.5"/>
              </g>
              <path id="Path_266581" data-name="Path 266581" d="M207.009,234.845s-7.368,2.368-8.42,4.21-.264,14.736-.264,16.315.921-.921,1.711-2.763,3.552-4.6,4.474-4.342,1.447,1.316,1.447,3.026,2.105,4.079,3.947,5.4,3.552,2.631,3.552,2.631,3.815-5.526,4.737-6.973.789-4.474.921-5.526,2.5,2.894,3.026,1.842-1.184-1.974-3.026-4.868-1.316-5.921-4.079-8.025S209.114,234.318,207.009,234.845Z" transform="translate(-198.041 -234.316)" fill="none" stroke="#263238" stroke-linecap="round" stroke-linejoin="round" stroke-width="1"/>
            </g>
            <g id="Group_47983" data-name="Group 47983" transform="translate(0 46.724)">
              <path id="Path_266582" data-name="Path 266582" d="M181.065,300.66s-4.539-6.513-10.065-7.1-12.236,3.947-12.434,5.526-1.579,10.065-.592,11.249,4.737,2.171,12.039-.2S180.276,304.8,181.065,300.66Z" transform="translate(-157.622 -293.502)" fill="#fff"/>
              <g id="Group_47982" data-name="Group 47982" clip-path="url(#clip-path-3)">
                <path id="Path_266583" data-name="Path 266583" d="M162.6,310.191s-1.573-4.521-.786-6.094,3.931-3.931,5.9-6.289-4.6,1.334-4.914,0c-.25-1.074,3.461-3.217,4.922-4.014-4.595.879-8.991,4.075-9.15,5.348-.2,1.579-1.579,10.065-.592,11.249.509.612,1.762,1.166,3.853,1.238C162.3,310.8,162.6,310.191,162.6,310.191Z" transform="translate(-157.622 -293.563)" fill="#0f4c81"/>
                <path id="Path_266584" data-name="Path 266584" d="M162.6,310.191s-1.573-4.521-.786-6.094,3.931-3.931,5.9-6.289-4.6,1.334-4.914,0c-.25-1.074,3.461-3.217,4.922-4.014-4.595.879-8.991,4.075-9.15,5.348-.2,1.579-1.579,10.065-.592,11.249.509.612,1.762,1.166,3.853,1.238C162.3,310.8,162.6,310.191,162.6,310.191Z" transform="translate(-157.622 -293.563)" fill="#fff" opacity="0.5"/>
              </g>
              <path id="Path_266586" data-name="Path 266586" d="M181.065,300.66s-4.539-6.513-10.065-7.1-12.236,3.947-12.434,5.526-1.579,10.065-.592,11.249,4.737,2.171,12.039-.2S180.276,304.8,181.065,300.66Z" transform="translate(-157.622 -293.502)" fill="none" stroke="#263238" stroke-linecap="round" stroke-linejoin="round" stroke-width="1"/>
            </g>
          </g>
          <g id="Group_47986" data-name="Group 47986" transform="translate(41.819 88.103)">
            <path id="Path_266587" data-name="Path 266587" d="M165.764,301.345s-7.406,2.94-7.7,8.684c-.161,3.178,5.131,4.539,10.657,4.539s13.42-6.908,18.552-9.868,16.973-9.868,18.354-10.46,6.118.987,8.092,1.579a26.694,26.694,0,0,0,5.723.592s2.763,4.342,4.145,4.342-2.96-6.513-3.552-7.894-10.263-4.539-11.447-4.539-28.814,6.908-32.959,8.486S165.764,301.345,165.764,301.345Z" transform="translate(-158.063 -288.319)" fill="#fff"/>
            <g id="Group_47985" data-name="Group 47985" clip-path="url(#clip-path-4)">
              <path id="Path_266588" data-name="Path 266588" d="M181.243,300.523c11.286-5.643,27.348-12.2,27.348-12.2-1.184,0-28.814,6.908-32.959,8.486s-9.868,4.539-9.868,4.539-7.406,2.94-7.7,8.684c-.161,3.178,5.131,4.539,10.657,4.539s13.42-6.908,18.552-9.868c.871-.5,1.937-1.119,3.11-1.8C182.846,303.872,172.772,304.758,181.243,300.523Z" transform="translate(-158.063 -288.319)" fill="#0f4c81"/>
              <path id="Path_266589" data-name="Path 266589" d="M181.243,300.523c11.286-5.643,27.348-12.2,27.348-12.2-1.184,0-28.814,6.908-32.959,8.486s-9.868,4.539-9.868,4.539-7.406,2.94-7.7,8.684c-.161,3.178,5.131,4.539,10.657,4.539s13.42-6.908,18.552-9.868c.871-.5,1.937-1.119,3.11-1.8C182.846,303.872,172.772,304.758,181.243,300.523Z" transform="translate(-158.063 -288.319)" fill="#fff" opacity="0.5"/>
            </g>
            <path id="Path_266591" data-name="Path 266591" d="M165.764,301.345s-7.406,2.94-7.7,8.684c-.161,3.178,5.131,4.539,10.657,4.539s13.42-6.908,18.552-9.868,16.973-9.868,18.354-10.46,6.118.987,8.092,1.579a26.694,26.694,0,0,0,5.723.592s2.763,4.342,4.145,4.342-2.96-6.513-3.552-7.894-10.263-4.539-11.447-4.539-28.814,6.908-32.959,8.486S165.764,301.345,165.764,301.345Z" transform="translate(-158.063 -288.319)" fill="none" stroke="#263238" stroke-linecap="round" stroke-linejoin="round" stroke-width="1"/>
          </g>
          <g id="Group_47989" data-name="Group 47989" transform="translate(80.085 55.59)">
            <path id="Path_266592" data-name="Path 266592" d="M239.332,248.778l-6.014,33.829,43.419.2,6.458-32.079a1.993,1.993,0,0,0-1.894-2.385l-39.947-1.206A1.993,1.993,0,0,0,239.332,248.778Z" transform="translate(-212.176 -247.134)" fill="#fff" stroke="#263238" stroke-linecap="round" stroke-linejoin="round" stroke-width="1"/>
            <g id="Group_47988" data-name="Group 47988" transform="translate(0 35.474)">
              <path id="Path_266593" data-name="Path 266593" d="M227.679,292.069l-21.142,14.953,48.353-1.382L271.1,292.267Z" transform="translate(-206.537 -292.069)" fill="#fff"/>
              <g id="Group_47987" data-name="Group 47987" clip-path="url(#clip-path-5)">
                <path id="Path_266594" data-name="Path 266594" d="M227.679,292.069l-21.142,14.953,48.353-1.382L271.1,292.267Z" transform="translate(-206.537 -292.069)" fill="#0f4c81"/>
                <path id="Path_266595" data-name="Path 266595" d="M227.679,292.069l-21.142,14.953,48.353-1.382L271.1,292.267Z" transform="translate(-206.537 -292.069)" fill="#fff" opacity="0.5"/>
              </g>
              <path id="Path_266597" data-name="Path 266597" d="M227.679,292.069l-21.142,14.953,48.353-1.382L271.1,292.267Z" transform="translate(-206.537 -292.069)" fill="none" stroke="#263238" stroke-linecap="round" stroke-linejoin="round" stroke-width="1"/>
            </g>
          </g>
          <g id="Group_47991" data-name="Group 47991" transform="translate(117.213 82.278)">
            <path id="Path_266598" data-name="Path 266598" d="M253.568,304.528s17.368-15.2,34.538-20.328,20.723-4.342,20.328,3.355-8.684,47.958-14.21,58.221-12.434,29.012-12.236,32.564,6.908,14.013,12.828,17.762,5.329,8.289,1.579,9.079-8.092,2.171-20.92-6.118-18.157-20.131-17.368-23.091,9.079-6.908,12.434-12.828,8.881-28.025,9.276-38.09a59.806,59.806,0,0,1,3.947-18.552s-21.71,3.947-28.025,7.894Z" transform="translate(-253.568 -280.941)" fill="#fff"/>
            <g id="Group_47990" data-name="Group 47990" clip-path="url(#clip-path-6)">
              <path id="Path_266599" data-name="Path 266599" d="M253.568,304.528s17.368-15.2,34.538-20.328,20.723-4.342,20.328,3.355-8.684,47.958-14.21,58.221-12.434,29.012-12.236,32.564,6.908,14.013,12.828,17.762,5.329,8.289,1.579,9.079-8.092,2.171-20.92-6.118-18.157-20.131-17.368-23.091,9.079-6.908,12.434-12.828,8.881-28.025,9.276-38.09a59.806,59.806,0,0,1,3.947-18.552s-21.71,3.947-28.025,7.894Z" transform="translate(-253.568 -280.941)" fill="#0f4c81"/>
              <path id="Path_266600" data-name="Path 266600" d="M253.568,304.528s17.368-15.2,34.538-20.328,20.723-4.342,20.328,3.355-8.684,47.958-14.21,58.221-12.434,29.012-12.236,32.564,6.908,14.013,12.828,17.762,5.329,8.289,1.579,9.079-8.092,2.171-20.92-6.118-18.157-20.131-17.368-23.091,9.079-6.908,12.434-12.828,8.881-28.025,9.276-38.09a59.806,59.806,0,0,1,3.947-18.552s-21.71,3.947-28.025,7.894Z" transform="translate(-253.568 -280.941)" fill="#fff" opacity="0.5"/>
            </g>
            <path id="Path_266602" data-name="Path 266602" d="M253.568,304.528s17.368-15.2,34.538-20.328,20.723-4.342,20.328,3.355-8.684,47.958-14.21,58.221-12.434,29.012-12.236,32.564,6.908,14.013,12.828,17.762,5.329,8.289,1.579,9.079-8.092,2.171-20.92-6.118-18.157-20.131-17.368-23.091,9.079-6.908,12.434-12.828,8.881-28.025,9.276-38.09a59.806,59.806,0,0,1,3.947-18.552s-21.71,3.947-28.025,7.894Z" transform="translate(-253.568 -280.941)" fill="none" stroke="#263238" stroke-linecap="round" stroke-linejoin="round" stroke-width="1"/>
          </g>
          <path id="Path_266603" data-name="Path 266603" d="M270.541,363.143a14.882,14.882,0,0,1-.838,1.295,20.282,20.282,0,0,1,11.1,4.626,36.108,36.108,0,0,1,2.7,2.61,173.375,173.375,0,0,1,10.721-25.9c5.526-10.263,13.815-50.524,14.21-58.221s-3.158-8.486-20.328-3.355-34.538,20.328-34.538,20.328l2.171,9.868c6.315-3.947,28.025-7.894,28.025-7.894a59.806,59.806,0,0,0-3.947,18.552C279.422,335.118,273.9,357.223,270.541,363.143Z" transform="translate(-136.355 -198.662)" fill="#fff" stroke="#263238" stroke-linecap="round" stroke-linejoin="round" stroke-width="1"/>
          <g id="Group_47993" data-name="Group 47993" transform="translate(117.213 82.278)">
            <path id="Path_266604" data-name="Path 266604" d="M270.541,363.143a14.882,14.882,0,0,1-.838,1.295,20.282,20.282,0,0,1,11.1,4.626,36.108,36.108,0,0,1,2.7,2.61c3.783-5.078,8.036-21.117,12.838-27.714,12.406-17.044,11.7-48.708,12.093-56.405s-3.158-8.486-20.328-3.355-34.538,20.328-34.538,20.328l2.171,9.868c6.315-3.947,28.025-7.894,28.025-7.894a59.806,59.806,0,0,0-3.947,18.552C279.422,335.118,273.9,357.223,270.541,363.143Z" transform="translate(-253.568 -280.941)" fill="#263238"/>
            <g id="Group_47992" data-name="Group 47992" clip-path="url(#clip-path-7)">
              <path id="Path_266605" data-name="Path 266605" d="M270.541,363.143a14.882,14.882,0,0,1-.838,1.295,20.282,20.282,0,0,1,11.1,4.626,36.108,36.108,0,0,1,2.7,2.61c3.783-5.078,8.036-21.117,12.838-27.714,12.406-17.044,11.7-48.708,12.093-56.405s-3.158-8.486-20.328-3.355-34.538,20.328-34.538,20.328l2.171,9.868c6.315-3.947,28.025-7.894,28.025-7.894a59.806,59.806,0,0,0-3.947,18.552C279.422,335.118,273.9,357.223,270.541,363.143Z" transform="translate(-253.568 -280.941)" fill="#fff" opacity="0.53"/>
              <path id="Path_266606" data-name="Path 266606" d="M300.091,287.9c-.312-2.8-30.838,10.117-43.711,15.7-1.786,1.423-2.812,2.319-2.812,2.319l2.171,9.868c6.315-3.947,28.025-7.894,28.025-7.894a59.806,59.806,0,0,0-3.947,18.552c-.395,10.065-5.921,32.17-9.276,38.09a14.755,14.755,0,0,1-.838,1.294,22.492,22.492,0,0,1,6.3,1.633c4.781-10.108,9.847-21.826,12.251-31.006C292.591,319.867,300.486,291.448,300.091,287.9Z" transform="translate(-253.568 -282.322)" opacity="0.14"/>
              <path id="Path_266607" data-name="Path 266607" d="M291.818,308.792s5.921-12.039,11.052-16.973" transform="translate(-261.622 -283.231)" fill="none" stroke="#263238" stroke-linecap="round" stroke-linejoin="round" stroke-width="1"/>
            </g>
            <path id="Path_266609" data-name="Path 266609" d="M270.541,363.143a14.882,14.882,0,0,1-.838,1.295,20.282,20.282,0,0,1,11.1,4.626,36.108,36.108,0,0,1,2.7,2.61c3.783-5.078,8.036-21.117,12.838-27.714,12.406-17.044,11.7-48.708,12.093-56.405s-3.158-8.486-20.328-3.355-34.538,20.328-34.538,20.328l2.171,9.868c6.315-3.947,28.025-7.894,28.025-7.894a59.806,59.806,0,0,0-3.947,18.552C279.422,335.118,273.9,357.223,270.541,363.143Z" transform="translate(-253.568 -280.941)" fill="none" stroke="#263238" stroke-linecap="round" stroke-linejoin="round" stroke-width="1"/>
          </g>
          <path id="Path_266610" data-name="Path 266610" d="M220.589,328.175a67.883,67.883,0,0,0,18.671-3.518c8.929-3.247-7.306-9.2-13.529-5.952A9.248,9.248,0,0,0,220.589,328.175Z" transform="translate(-129.395 -206.416)" fill="#263238" stroke="#263238" stroke-linecap="round" stroke-linejoin="round" stroke-width="1"/>
          <g id="Group_47995" data-name="Group 47995" transform="translate(56.702 94.287)">
            <path id="Path_266611" data-name="Path 266611" d="M185.72,310.888s-6.315,3.552-8.486,7.5,7.17,10.526,17.038,10.132S222.231,317.4,222.231,317.4s.2,17.368,3.552,23.683,18.749,21.71,24.867,25.657,26.644,18.749,29.8,21.117,9.079,6.71,10.46,6.908S306.7,377.4,310.056,371.478s6.315-18.354,5.131-21.117-3.552-.395-5.921,1.579-24.078,16.381-26.051,17.368a21.661,21.661,0,0,1-3.355,1.382s-17.762-16.973-27.236-30-10.263-29.8-13.815-36.117-8.684-9.079-16.381-8.289S198.746,301.218,185.72,310.888Z" transform="translate(-176.917 -296.152)" fill="#fff"/>
            <g id="Group_47994" data-name="Group 47994" clip-path="url(#clip-path-8)">
              <path id="Path_266612" data-name="Path 266612" d="M293.853,400.771c5.27,3.777,9.861,7.109,11.222,8.13,3.158,2.368,9.079,6.71,10.46,6.908.49.07,2.621-2.1,5.314-5.185l-22.6-14.539Z" transform="translate(-201.539 -317.194)" fill="#0f4c81"/>
              <path id="Path_266613" data-name="Path 266613" d="M293.853,400.771c5.27,3.777,9.861,7.109,11.222,8.13,3.158,2.368,9.079,6.71,10.46,6.908.49.07,2.621-2.1,5.314-5.185l-22.6-14.539Z" transform="translate(-201.539 -317.194)" fill="#fff" opacity="0.5"/>
            </g>
            <path id="Path_266615" data-name="Path 266615" d="M185.72,310.888s-6.315,3.552-8.486,7.5,7.17,10.526,17.038,10.132S222.231,317.4,222.231,317.4s.2,17.368,3.552,23.683,18.749,21.71,24.867,25.657,26.644,18.749,29.8,21.117,9.079,6.71,10.46,6.908S306.7,377.4,310.056,371.478s6.315-18.354,5.131-21.117-3.552-.395-5.921,1.579-24.078,16.381-26.051,17.368a21.661,21.661,0,0,1-3.355,1.382s-17.762-16.973-27.236-30-10.263-29.8-13.815-36.117-8.684-9.079-16.381-8.289S198.746,301.218,185.72,310.888Z" transform="translate(-176.917 -296.152)" fill="none" stroke="#263238" stroke-linecap="round" stroke-linejoin="round" stroke-width="1"/>
          </g>
          <g id="Group_47997" data-name="Group 47997" transform="translate(54.229 94.132)">
            <path id="Path_266616" data-name="Path 266616" d="M277.975,369.46c-4.174-4.071-19.831-25.078-26.01-37.155-9.055-17.7-10.03-23.73-13.582-30.045s-8.918-6.807-16.615-6.018a91.124,91.124,0,0,0-38.366,11.8s-7.092,3.856-9.263,7.8,5.732,13.886,19.472,12.631c9.835-.9,27.959-11.118,27.959-11.118s.2,17.368,3.552,23.683,18.749,21.71,24.867,25.657c3.88,2.5,13.551,9.37,20.915,14.665C272.754,374.754,276.016,371.133,277.975,369.46Z" transform="translate(-173.784 -295.956)" fill="#263238"/>
            <g id="Group_47996" data-name="Group 47996" clip-path="url(#clip-path-9)">
              <path id="Path_266617" data-name="Path 266617" d="M277.975,369.46c-4.174-4.071-19.831-25.078-26.01-37.155-9.055-17.7-10.03-23.73-13.582-30.045s-8.918-6.807-16.615-6.018a91.124,91.124,0,0,0-38.366,11.8s-7.092,3.856-9.263,7.8,5.732,13.886,19.472,12.631c9.835-.9,27.959-11.118,27.959-11.118s.2,17.368,3.552,23.683,18.749,21.71,24.867,25.657c3.88,2.5,13.551,9.37,20.915,14.665C272.754,374.754,276.016,371.133,277.975,369.46Z" transform="translate(-173.784 -295.956)" fill="#fff" opacity="0.53"/>
              <path id="Path_266618" data-name="Path 266618" d="M238.352,342.456c-5.921-15-2.368-45-18.947-41.051-12.081,2.877-34.219,13.087-45.344,18.417,1.314,4.53,8.577,10.737,19.609,9.729,9.835-.9,27.959-11.118,27.959-11.118s.2,17.368,3.552,23.683,18.749,21.71,24.867,25.657c3.88,2.5,13.551,9.37,20.915,14.665a27.987,27.987,0,0,1,2.757-6.614C259.022,364.965,241.657,350.829,238.352,342.456Z" transform="translate(-173.842 -297.029)" opacity="0.14"/>
              <line id="Line_76" data-name="Line 76" x1="0.592" y1="10.263" transform="translate(47.196 11.142)" fill="none" stroke="#263238" stroke-linecap="round" stroke-linejoin="round" stroke-width="1"/>
            </g>
            <path id="Path_266620" data-name="Path 266620" d="M277.975,369.46c-4.174-4.071-19.831-25.078-26.01-37.155-9.055-17.7-10.03-23.73-13.582-30.045s-8.918-6.807-16.615-6.018a91.124,91.124,0,0,0-38.366,11.8s-7.092,3.856-9.263,7.8,5.732,13.886,19.472,12.631c9.835-.9,27.959-11.118,27.959-11.118s.2,17.368,3.552,23.683,18.749,21.71,24.867,25.657c3.88,2.5,13.551,9.37,20.915,14.665C272.754,374.754,276.016,371.133,277.975,369.46Z" transform="translate(-173.784 -295.956)" fill="none" stroke="#263238" stroke-linecap="round" stroke-linejoin="round" stroke-width="1"/>
          </g>
          <path id="Path_266621" data-name="Path 266621" d="M307.739,401.982c3.158,2.368,9.079,6.71,10.46,6.908s15.789-17.368,19.144-23.288,6.315-18.354,5.131-21.117-3.552-.395-5.921,1.579S312.476,382.443,310.5,383.43c-.517.259-.99.474-1.411.655-.572,1.08-1.26,2.758-.759,3.884.789,1.776,4.145,4.145,4.145,4.145l-5.971,8.957C307.036,401.46,307.459,401.772,307.739,401.982Z" transform="translate(-147.501 -215.988)" fill="#263238" stroke="#263238" stroke-linecap="round" stroke-linejoin="round" stroke-width="1"/>
          <g id="Group_47999" data-name="Group 47999" transform="translate(167.325 147.24)">
            <path id="Path_266622" data-name="Path 266622" d="M339.562,385.6c3.355-5.921,6.315-18.354,5.131-21.117-.686-1.6-1.771-1.475-3.021-.7.831,3.692-.008,10.806-4.084,18.467-3.637,6.837-14.879,18.92-20.543,24.8a13.226,13.226,0,0,0,3.372,1.839C321.8,409.088,336.207,391.523,339.562,385.6Z" transform="translate(-317.046 -363.23)" fill="#fff"/>
            <g id="Group_47998" data-name="Group 47998" clip-path="url(#clip-path-10)">
              <path id="Path_266623" data-name="Path 266623" d="M320.621,419.043a1.5,1.5,0,0,0,.168-.092l.054-.033c.08-.053.168-.118.264-.193l.093-.077c.073-.059.149-.125.23-.2.043-.036.084-.073.129-.113.1-.088.2-.182.306-.283l.191-.184c.084-.081.17-.165.259-.253q.11-.108.223-.224l.218-.223c.181-.186.369-.382.564-.59l.09-.095c.114-.122.234-.25.353-.38l.139-.151c.413-.449.85-.935,1.307-1.453l.036-.04q.238-.271.484-.553l0,0-3.446-2.217c-1.965,2.132-3.787,4.054-5.24,5.563h0q.274.18.535.348l.073.047c.167.107.331.21.488.308l.009.006c.27.167.52.316.758.452l.221.125c.077.043.148.08.221.118s.171.089.251.129c.06.029.117.056.173.081.086.039.165.073.241.1.039.015.082.033.118.046a1.616,1.616,0,0,0,.283.077.331.331,0,0,0,.149-.029C320.584,419.06,320.6,419.051,320.621,419.043Z" transform="translate(-317.046 -373.434)" fill="#0f4c81"/>
              <path id="Path_266624" data-name="Path 266624" d="M320.621,419.043a1.5,1.5,0,0,0,.168-.092l.054-.033c.08-.053.168-.118.264-.193l.093-.077c.073-.059.149-.125.23-.2.043-.036.084-.073.129-.113.1-.088.2-.182.306-.283l.191-.184c.084-.081.17-.165.259-.253q.11-.108.223-.224l.218-.223c.181-.186.369-.382.564-.59l.09-.095c.114-.122.234-.25.353-.38l.139-.151c.413-.449.85-.935,1.307-1.453l.036-.04q.238-.271.484-.553l0,0-3.446-2.217c-1.965,2.132-3.787,4.054-5.24,5.563h0q.274.18.535.348l.073.047c.167.107.331.21.488.308l.009.006c.27.167.52.316.758.452l.221.125c.077.043.148.08.221.118s.171.089.251.129c.06.029.117.056.173.081.086.039.165.073.241.1.039.015.082.033.118.046a1.616,1.616,0,0,0,.283.077.331.331,0,0,0,.149-.029C320.584,419.06,320.6,419.051,320.621,419.043Z" transform="translate(-317.046 -373.434)" fill="#fff" opacity="0.5"/>
            </g>
            <path id="Path_266626" data-name="Path 266626" d="M339.562,385.6c3.355-5.921,6.315-18.354,5.131-21.117-.686-1.6-1.771-1.475-3.021-.7.831,3.692-.008,10.806-4.084,18.467-3.637,6.837-14.879,18.92-20.543,24.8a13.226,13.226,0,0,0,3.372,1.839C321.8,409.088,336.207,391.523,339.562,385.6Z" transform="translate(-317.046 -363.23)" fill="none" stroke="#263238" stroke-linecap="round" stroke-linejoin="round" stroke-width="1"/>
          </g>
          <path id="Path_266627" data-name="Path 266627" d="M296.007,419.884c-5.921-3.75-12.631-14.21-12.828-17.762a6.119,6.119,0,0,1,.092-1.164,5.7,5.7,0,0,0-3.25,1.164,75.457,75.457,0,0,0-7.7-6.118,16.071,16.071,0,0,0-7.08-2.12c-2.866,2.353-5.517,4.26-5.946,5.869-.789,2.96,4.539,14.8,17.368,23.091s17.17,6.908,20.92,6.118S301.927,423.634,296.007,419.884Z" transform="translate(-137.545 -222.444)" fill="#263238" stroke="#263238" stroke-linecap="round" stroke-linejoin="round" stroke-width="1"/>
          <path id="Path_266628" data-name="Path 266628" d="M257.818,401.819" transform="translate(-137.25 -224.115)" fill="#fff" stroke="#263238" stroke-linecap="round" stroke-linejoin="round" stroke-width="1"/>
          <g id="Group_48001" data-name="Group 48001" transform="translate(121.677 175.123)">
            <path id="Path_266629" data-name="Path 266629" d="M296.007,420.866a26.018,26.018,0,0,1-5.26-4.732,107.1,107.1,0,0,1-14.279-6.912c-5.131-3.158-3.947-5.131-6.908-8.092-2.271-2.271-6.741-2.566-8.7-2.581a5.392,5.392,0,0,0-1.56,2.187c-.789,2.96,4.539,14.8,17.368,23.091s17.17,6.908,20.92,6.118S301.927,424.616,296.007,420.866Z" transform="translate(-259.222 -398.549)" fill="#fff"/>
            <g id="Group_48000" data-name="Group 48000" clip-path="url(#clip-path-11)">
              <path id="Path_266630" data-name="Path 266630" d="M296.007,420.866a26.018,26.018,0,0,1-5.26-4.732,107.1,107.1,0,0,1-14.279-6.912c-5.131-3.158-3.947-5.131-6.908-8.092-2.271-2.271-6.741-2.566-8.7-2.581a5.392,5.392,0,0,0-1.56,2.187c-.789,2.96,4.539,14.8,17.368,23.091s17.17,6.908,20.92,6.118S301.927,424.616,296.007,420.866Z" transform="translate(-259.222 -398.549)" fill="#0f4c81"/>
              <path id="Path_266631" data-name="Path 266631" d="M296.007,420.866a26.018,26.018,0,0,1-5.26-4.732,107.1,107.1,0,0,1-14.279-6.912c-5.131-3.158-3.947-5.131-6.908-8.092-2.271-2.271-6.741-2.566-8.7-2.581a5.392,5.392,0,0,0-1.56,2.187c-.789,2.96,4.539,14.8,17.368,23.091s17.17,6.908,20.92,6.118S301.927,424.616,296.007,420.866Z" transform="translate(-259.222 -398.549)" fill="#fff" opacity="0.5"/>
            </g>
            <path id="Path_266633" data-name="Path 266633" d="M296.007,420.866a26.018,26.018,0,0,1-5.26-4.732,107.1,107.1,0,0,1-14.279-6.912c-5.131-3.158-3.947-5.131-6.908-8.092-2.271-2.271-6.741-2.566-8.7-2.581a5.392,5.392,0,0,0-1.56,2.187c-.789,2.96,4.539,14.8,17.368,23.091s17.17,6.908,20.92,6.118S301.927,424.616,296.007,420.866Z" transform="translate(-259.222 -398.549)" fill="none" stroke="#263238" stroke-linecap="round" stroke-linejoin="round" stroke-width="1"/>
          </g>
          <g id="Group_48003" data-name="Group 48003" transform="translate(121.68 176.705)">
            <path id="Path_266634" data-name="Path 266634" d="M296.994,422.67c-5.131-2.96-15.591-4.934-22.3-9.473s-4.934-8.486-9.868-11.644a5.029,5.029,0,0,0-5.54-.317c-.685,3.078,4.657,14.791,17.382,23.013,12.828,8.289,17.17,6.908,20.92,6.118,2.492-.524,3.575-2.708,2.293-5.213A10.852,10.852,0,0,0,296.994,422.67Z" transform="translate(-259.226 -400.553)" fill="#263238"/>
            <g id="Group_48002" data-name="Group 48002" clip-path="url(#clip-path-12)">
              <path id="Path_266635" data-name="Path 266635" d="M296.994,422.67c-5.131-2.96-15.591-4.934-22.3-9.473s-4.934-8.486-9.868-11.644a5.029,5.029,0,0,0-5.54-.317c-.685,3.078,4.657,14.791,17.382,23.013,12.828,8.289,17.17,6.908,20.92,6.118,2.492-.524,3.575-2.708,2.293-5.213A10.852,10.852,0,0,0,296.994,422.67Z" transform="translate(-259.226 -400.553)" fill="#fff" opacity="0.53"/>
            </g>
            <path id="Path_266637" data-name="Path 266637" d="M296.994,422.67c-5.131-2.96-15.591-4.934-22.3-9.473s-4.934-8.486-9.868-11.644a5.029,5.029,0,0,0-5.54-.317c-.685,3.078,4.657,14.791,17.382,23.013,12.828,8.289,17.17,6.908,20.92,6.118,2.492-.524,3.575-2.708,2.293-5.213A10.852,10.852,0,0,0,296.994,422.67Z" transform="translate(-259.226 -400.553)" fill="none" stroke="#263238" stroke-linecap="round" stroke-linejoin="round" stroke-width="1"/>
          </g>
          <g id="Group_48005" data-name="Group 48005" transform="translate(42.432 133.201)">
            <path id="Path_266638" data-name="Path 266638" d="M181.769,380.107s3.788-4.6,4.329-1.082-.271,10.012-2.977,12.447-4.059-1.353-4.059-1.353l1.623-2.165s1.353,2.706,2.435-1.624-2.165-3.788-2.165-3.788Z" transform="translate(-163.099 -352.237)" fill="#fff" stroke="#263238" stroke-linecap="round" stroke-linejoin="round" stroke-width="1"/>
            <path id="Path_266639" data-name="Path 266639" d="M174.611,397.222c-2.242,1.66-9.546,1.66-11.788,0-4.745-3.512-3.929-20.482-3.929-20.482h19.629S179.355,393.71,174.611,397.222Z" transform="translate(-158.84 -352.035)" fill="#fff" stroke="#263238" stroke-linecap="round" stroke-linejoin="round" stroke-width="1"/>
            <g id="Group_48004" data-name="Group 48004" transform="translate(2.186)">
              <path id="Path_266640" data-name="Path 266640" d="M161.61,366.821c0-2.137,1.978-2.137,1.978-4.274s-1.978-2.135-1.978-4.272,1.978-2.137,1.978-4.275-1.978-2.139-1.978-4.278,1.978-2.139,1.978-4.278" transform="translate(-161.61 -345.445)" fill="none" stroke="#263238" stroke-linecap="round" stroke-linejoin="round" stroke-width="1"/>
              <path id="Path_266641" data-name="Path 266641" d="M170.2,368.193c0-1.622,1.978-1.622,1.978-3.245s-1.978-1.622-1.978-3.245,1.978-1.623,1.978-3.247-1.978-1.625-1.978-3.249,1.978-1.625,1.978-3.25" transform="translate(-163.419 -346.816)" fill="none" stroke="#263238" stroke-linecap="round" stroke-linejoin="round" stroke-width="1"/>
              <path id="Path_266642" data-name="Path 266642" d="M179.648,366.821c0-2.137,1.978-2.137,1.978-4.274s-1.978-2.135-1.978-4.272,1.978-2.137,1.978-4.275-1.978-2.139-1.978-4.278,1.978-2.139,1.978-4.278" transform="translate(-165.408 -345.445)" fill="none" stroke="#263238" stroke-linecap="round" stroke-linejoin="round" stroke-width="1"/>
            </g>
            <path id="Path_266643" data-name="Path 266643" d="M178.537,376.5c0,.493-4.394.894-9.814.894s-9.814-.4-9.814-.894,4.394-.894,9.814-.894S178.537,376.008,178.537,376.5Z" transform="translate(-158.855 -351.796)" fill="#fff" stroke="#263238" stroke-linecap="round" stroke-linejoin="round" stroke-width="1"/>
          </g>
          <g id="Group_48016" data-name="Group 48016" transform="translate(69.029)">
            <g id="Group_48007" data-name="Group 48007" transform="translate(11.202 35.523)">
              <path id="Path_266644" data-name="Path 266644" d="M206.721,221.959s.92,9.971,1.307,13.116,1.27,12.2,2.178,15.189,5.853,8.2,6.332,6.993,2.925-9.332,1.944-14.166-1.277-9.035-.667-10.245a9.915,9.915,0,0,1,2.795-2.611,77.747,77.747,0,0,1-7.412-4.317C209.681,223.554,207.206,220.886,206.721,221.959Z" transform="translate(-206.721 -221.715)" fill="#fff"/>
              <g id="Group_48006" data-name="Group 48006" clip-path="url(#clip-path-13)">
                <path id="Path_266645" data-name="Path 266645" d="M219.389,230.7l-.807-1.537c-1.449-.794-3.471-1.956-5.385-3.243-3.517-2.363-5.992-5.031-6.477-3.958,0,0,.92,9.971,1.307,13.116s1.27,12.2,2.178,15.189a9.974,9.974,0,0,0,1.265,2.461c-.955-5.953.081-16.7.081-16.7Z" transform="translate(-206.721 -221.715)" fill="#0f4c81"/>
                <path id="Path_266646" data-name="Path 266646" d="M219.389,230.7l-.807-1.537c-1.449-.794-3.471-1.956-5.385-3.243-3.517-2.363-5.992-5.031-6.477-3.958,0,0,.92,9.971,1.307,13.116s1.27,12.2,2.178,15.189a9.974,9.974,0,0,0,1.265,2.461c-.955-5.953.081-16.7.081-16.7Z" transform="translate(-206.721 -221.715)" fill="#fff" opacity="0.5"/>
              </g>
              <path id="Path_266648" data-name="Path 266648" d="M206.721,221.959s.92,9.971,1.307,13.116,1.27,12.2,2.178,15.189,5.853,8.2,6.332,6.993,2.925-9.332,1.944-14.166-1.277-9.035-.667-10.245a9.915,9.915,0,0,1,2.795-2.611,77.747,77.747,0,0,1-7.412-4.317C209.681,223.554,207.206,220.886,206.721,221.959Z" transform="translate(-206.721 -221.715)" fill="none" stroke="#263238" stroke-linecap="round" stroke-linejoin="round" stroke-width="1"/>
            </g>
            <g id="Group_48015" data-name="Group 48015">
              <g id="Group_48010" data-name="Group 48010" transform="translate(6.506 12.908)">
                <g id="Group_48009" data-name="Group 48009">
                  <path id="Path_266649" data-name="Path 266649" d="M205.1,217.35s5.686,4.759,10.048,6.477,11.06,1.627,12-.644-1.654-20.207-3.9-24.93-4.656-4.8-8.621-5.158-11.913,2.874-13.309,6.709.193,9.27,1.351,12.488A23.769,23.769,0,0,0,205.1,217.35Z" transform="translate(-200.773 -193.067)" fill="#fff"/>
                  <g id="Group_48008" data-name="Group 48008" clip-path="url(#clip-path-14)">
                    <path id="Path_266650" data-name="Path 266650" d="M215.315,217.141c-2.015-5.987-2.508-15.361-2.508-17.869,0-1.935,5.037-4.055,7.339-4.924-1.507-.933-3.26-1.049-5.519-1.254-3.966-.36-11.913,2.874-13.309,6.709s.193,9.27,1.351,12.488a23.769,23.769,0,0,0,2.432,5.059s5.686,4.759,10.048,6.477a18.125,18.125,0,0,0,9.428.91C221.494,223.558,216.657,221.129,215.315,217.141Z" transform="translate(-200.773 -193.067)" fill="#0f4c81"/>
                    <path id="Path_266651" data-name="Path 266651" d="M215.315,217.141c-2.015-5.987-2.508-15.361-2.508-17.869,0-1.935,5.037-4.055,7.339-4.924-1.507-.933-3.26-1.049-5.519-1.254-3.966-.36-11.913,2.874-13.309,6.709s.193,9.27,1.351,12.488a23.769,23.769,0,0,0,2.432,5.059s5.686,4.759,10.048,6.477a18.125,18.125,0,0,0,9.428.91C221.494,223.558,216.657,221.129,215.315,217.141Z" transform="translate(-200.773 -193.067)" fill="#fff" opacity="0.5"/>
                  </g>
                  <path id="Path_266653" data-name="Path 266653" d="M205.1,217.35s5.686,4.759,10.048,6.477,11.06,1.627,12-.644-1.654-20.207-3.9-24.93-4.656-4.8-8.621-5.158-11.913,2.874-13.309,6.709.193,9.27,1.351,12.488A23.769,23.769,0,0,0,205.1,217.35Z" transform="translate(-200.773 -193.067)" fill="none" stroke="#263238" stroke-linecap="round" stroke-linejoin="round" stroke-width="1"/>
                </g>
                <path id="Path_266654" data-name="Path 266654" d="M228,207.909c.089,2.274-1.336,4.175-3.183,4.249s-3.418-1.712-3.507-3.986,1.336-4.176,3.183-4.249S227.908,205.635,228,207.909Z" transform="translate(-205.096 -195.353)" fill="none" stroke="#263238" stroke-linecap="round" stroke-linejoin="round" stroke-width="1"/>
                <path id="Path_266655" data-name="Path 266655" d="M234.48,206.8c.089,2.274-.644,4.149-1.639,4.188s-1.874-1.772-1.963-4.046.644-4.148,1.639-4.188S234.391,204.526,234.48,206.8Z" transform="translate(-207.11 -195.107)" fill="none" stroke="#263238" stroke-linecap="round" stroke-linejoin="round" stroke-width="1"/>
                <path id="Path_266656" data-name="Path 266656" d="M230.077,207.936s6.52,1.24,5.895,2.811-5.038,3.268-5.038,3.268" transform="translate(-206.943 -196.198)" fill="#fff" stroke="#263238" stroke-linecap="round" stroke-linejoin="round" stroke-width="1"/>
                <path id="Path_266657" data-name="Path 266657" d="M229.571,206.894s.092-.806,1.1-.29" transform="translate(-206.836 -195.881)" fill="none" stroke="#263238" stroke-linecap="round" stroke-linejoin="round" stroke-width="1"/>
                <line id="Line_77" data-name="Line 77" x1="11.857" y2="4.665" transform="translate(4.171 13.191)" fill="none" stroke="#263238" stroke-linecap="round" stroke-linejoin="round" stroke-width="1"/>
                <path id="Path_266658" data-name="Path 266658" d="M221.276,204.442a3.007,3.007,0,0,1,2.955-1.783" transform="translate(-205.09 -195.086)" fill="none" stroke="#263238" stroke-linecap="round" stroke-linejoin="round" stroke-width="2"/>
                <line id="Line_78" data-name="Line 78" x1="1.825" y2="0.689" transform="translate(22.258 7.625)" fill="none" stroke="#263238" stroke-linecap="round" stroke-linejoin="round" stroke-width="2"/>
                <path id="Path_266659" data-name="Path 266659" d="M224.136,219.467s2.345-.619,3.717.775" transform="translate(-205.692 -198.597)" fill="none" stroke="#263238" stroke-linecap="round" stroke-linejoin="round" stroke-width="1"/>
                <path id="Path_266660" data-name="Path 266660" d="M225.787,209.158c.108.792-.038,1.466-.325,1.505s-.609-.571-.718-1.363.037-1.466.325-1.505S225.679,208.366,225.787,209.158Z" transform="translate(-205.813 -196.168)" fill="#263238"/>
              </g>
              <g id="Group_48012" data-name="Group 48012">
                <path id="Path_266661" data-name="Path 266661" d="M204.317,207.513s-.8,1.578,1.44,1.662,3.74-1.007,2.656-2.338-2.681-2.643-1.033-4.426,4.853-3.283,3.057-5.274-8.426-.184-6.771-1.8,9.319-3.287,12.764-3.08,9.869-2.45,11.277-5.941-.563-9.943-5.187-9.589-8.072,4.441-10.124,4.694-6.263-1.987-9.791.042-3.649,7.7-3.965,8.4-5.086,1.746-5.926,6.59a12.881,12.881,0,0,0,3.348,10.863c1.975,2.156,2.866,2.98,2.866,2.98Z" transform="translate(-192.531 -176.716)" fill="#263238" stroke="#263238" stroke-linecap="round" stroke-linejoin="round" stroke-width="1"/>
                <g id="Group_48011" data-name="Group 48011" transform="translate(1.733 5.789)">
                  <path id="Path_266662" data-name="Path 266662" d="M194.734,204.651a3.738,3.738,0,0,0,.51,2.1" transform="translate(-194.727 -188.388)" fill="none" stroke="#fff" stroke-linecap="round" stroke-linejoin="round" stroke-width="0.75"/>
                  <path id="Path_266663" data-name="Path 266663" d="M215.071,187.816s-1.726-3.766,2.668-3.766,5.022,5.493.471,7.533-14.44,2.511-19.775,4.866a6.929,6.929,0,0,0-2.717,1.925" transform="translate(-194.935 -184.05)" fill="none" stroke="#fff" stroke-linecap="round" stroke-linejoin="round" stroke-width="0.75"/>
                  <path id="Path_266664" data-name="Path 266664" d="M207.7,205.761c-1.578.564-3.624,1.355-5.707,2.322-4.394,2.04-3.452,4.081-3.452,4.081" transform="translate(-195.512 -188.622)" fill="none" stroke="#fff" stroke-linecap="round" stroke-linejoin="round" stroke-width="0.75"/>
                  <path id="Path_266665" data-name="Path 266665" d="M213.594,204.527s-.384.114-1.04.328" transform="translate(-198.481 -188.362)" fill="none" stroke="#fff" stroke-linecap="round" stroke-linejoin="round" stroke-width="0.75"/>
                </g>
              </g>
              <g id="Group_48014" data-name="Group 48014" transform="translate(6.006 29.935)">
                <path id="Path_266666" data-name="Path 266666" d="M206.673,217.186s-2.551-3.68-5.241-2.2-.594,6.724,1.024,8.55,4.749-1.561,5.059-2.432" transform="translate(-200.14 -214.636)" fill="#fff"/>
                <g id="Group_48013" data-name="Group 48013" clip-path="url(#clip-path-15)">
                  <path id="Path_266667" data-name="Path 266667" d="M206.673,217.186s-2.551-3.68-5.241-2.2-.594,6.724,1.024,8.55,4.749-1.561,5.059-2.432" transform="translate(-200.14 -214.636)" fill="#0f4c81"/>
                  <path id="Path_266668" data-name="Path 266668" d="M206.673,217.186s-2.551-3.68-5.241-2.2-.594,6.724,1.024,8.55,4.749-1.561,5.059-2.432" transform="translate(-200.14 -214.636)" fill="#fff" opacity="0.5"/>
                </g>
                <path id="Path_266670" data-name="Path 266670" d="M206.673,217.186s-2.551-3.68-5.241-2.2-.594,6.724,1.024,8.55,4.749-1.561,5.059-2.432" transform="translate(-200.14 -214.636)" fill="none" stroke="#263238" stroke-linecap="round" stroke-linejoin="round" stroke-width="1"/>
              </g>
            </g>
          </g>
        </g>
      </g>
    </g>
    <g id="Plants" transform="translate(301.697 229.488)">
      <g id="Group_48022" data-name="Group 48022" transform="translate(0)">
        <g id="Group_48020" data-name="Group 48020" transform="translate(5.229 97.537)">
          <ellipse id="Ellipse_626" data-name="Ellipse 626" cx="13.204" cy="5.924" rx="13.204" ry="5.924"/>
        </g>
        <g id="Group_48021" data-name="Group 48021">
          <path id="Path_266672" data-name="Path 266672" d="M367.5,290.224c1.413.617,4.87.54,4.873.539.036,0-.743-2.263-.808-2.4-.759-1.587-3.158-4.206-5.109-3.942a2.331,2.331,0,0,0-1.87,2.921A4.872,4.872,0,0,0,367.5,290.224Z" transform="translate(-364.515 -274.376)" fill="#c5c5c5"/>
          <path id="Path_266673" data-name="Path 266673" d="M412.86,275.783c-1.958-.211-4.284,2.473-5,4.08-.062.139-.779,2.421-.743,2.42h.042c-.371.421-.763.876-1.182,1.382-.766.941-1.623,2.011-2.476,3.238A41.41,41.41,0,0,0,400.932,291a30.383,30.383,0,0,0-2.194,4.938c-.007.021-.011.042-.018.062.01-.576-.015-2.191-.031-2.315-.227-1.744-1.688-4.981-3.625-5.339a2.331,2.331,0,0,0-2.688,2.192,4.873,4.873,0,0,0,1.871,3.647,16.216,16.216,0,0,0,4.416,2.018,41.158,41.158,0,0,0-1.3,5.35c-.189,1.054-.345,2.121-.489,3.193-.007-.5-.017-.945-.025-1.007-.227-1.744-1.689-4.981-3.624-5.339a2.33,2.33,0,0,0-2.688,2.192,4.869,4.869,0,0,0,1.87,3.647,15.482,15.482,0,0,0,4.283,1.976c-.051.411-.106.822-.155,1.234-.236,1.976-.463,3.95-.745,5.878-.1.681-.222,1.345-.342,2.012-.007-.443-.017-.816-.024-.873-.227-1.744-1.688-4.981-3.625-5.339a2.331,2.331,0,0,0-2.688,2.192,4.87,4.87,0,0,0,1.871,3.647,14.888,14.888,0,0,0,4.159,1.935c-.144.679-.286,1.359-.456,2.011-.126.442-.216.876-.368,1.314s-.279.868-.418,1.295c-.3.813-.6,1.654-.9,2.44-.21.548-.422,1.067-.632,1.59.107-.676.287-2,.29-2.115a9.056,9.056,0,0,0-1.213-4.4,2.813,2.813,0,0,0-.032-.515,2.331,2.331,0,0,0-2.85-1.978c-1.9.507-3.11,3.848-3.2,5.6-.006.1.062,1.234.117,1.947-.1-.414-.184-.817-.287-1.242-.2-.842-.424-1.676-.662-2.574q-.194-.644-.394-1.3c-.122-.438-.307-.884-.459-1.332-.377-1.029-.808-2.053-1.265-3.076a15.313,15.313,0,0,0,4.39-1.645,4.869,4.869,0,0,0,2.137-3.5,2.33,2.33,0,0,0-2.517-2.386c-1.958.213-3.657,3.331-4.013,5.054-.022.107-.138,1.372-.188,2.068-.28-.613-.557-1.225-.86-1.835-.875-1.762-1.816-3.519-2.746-5.276-.285-.538-.563-1.077-.843-1.616a16.208,16.208,0,0,0,4.551-1.682,4.871,4.871,0,0,0,2.137-3.5,2.33,2.33,0,0,0-2.517-2.386c-1.958.213-3.657,3.332-4.013,5.054-.027.13-.191,1.95-.21,2.415-.617-1.187-1.22-2.376-1.768-3.572a41.074,41.074,0,0,1-1.922-4.964c.122-.028,3.378-.768,4.579-1.689a4.869,4.869,0,0,0,2.137-3.5,2.33,2.33,0,0,0-2.517-2.386c-1.959.212-3.657,3.331-4.013,5.054-.028.135-.2,2.093-.21,2.45-.03-.1-.073-.2-.1-.3a30.09,30.09,0,0,1-1-5.241c-.11-.978-.16-1.919-.189-2.836a15.691,15.691,0,0,0,4.625-1.163,4.873,4.873,0,0,0,2.509-3.242,2.33,2.33,0,0,0-2.24-2.648c-1.97,0-4,2.91-4.543,4.583-.03.091-.227,1.049-.362,1.749-.006-.414-.021-.841-.019-1.238,0-1.489.1-2.852.19-4.059.058-.686.126-1.3.193-1.884a15.586,15.586,0,0,0,3.549-3.149,4.873,4.873,0,0,0,.733-4.033,2.331,2.331,0,0,0-3.208-1.318c-1.749.9-2.21,4.426-1.921,6.162.025.149.686,2.449.716,2.429l.035-.024c-.077.555-.153,1.152-.223,1.8-.119,1.208-.244,2.573-.279,4.068a41.316,41.316,0,0,0,.115,4.829,30.369,30.369,0,0,0,.894,5.329c.006.021.014.042.02.062-.31-.486-1.222-1.818-1.3-1.913-1.151-1.329-4.156-3.223-5.969-2.454a2.332,2.332,0,0,0-1.033,3.312,4.875,4.875,0,0,0,3.573,2.01,16.235,16.235,0,0,0,4.8-.753,41.4,41.4,0,0,0,1.871,5.177c.425.982.883,1.959,1.354,2.932-.281-.412-.536-.779-.577-.827-1.15-1.33-4.156-3.223-5.968-2.454a2.331,2.331,0,0,0-1.033,3.312,4.872,4.872,0,0,0,3.572,2.01,15.458,15.458,0,0,0,4.662-.714c.185.371.365.744.551,1.115.894,1.779,1.793,3.55,2.621,5.314.293.622.557,1.245.825,1.867-.25-.365-.464-.672-.5-.715-1.151-1.329-4.156-3.223-5.968-2.454a2.331,2.331,0,0,0-1.033,3.312,4.873,4.873,0,0,0,3.573,2.01,14.874,14.874,0,0,0,4.536-.68c.254.646.511,1.292.729,1.929.139.438.3.851.418,1.3l.366,1.31c.2.842.416,1.708.592,2.534.127.573.238,1.123.35,1.675-.283-.622-.864-1.828-.924-1.924-.935-1.489-3.62-3.815-5.528-3.33a2.332,2.332,0,0,0-1.522,3.117,4.873,4.873,0,0,0,3.226,2.529,16,16,0,0,0,4.827-.015c.184.915.354,1.807.5,2.651.516,2.924.834,5.38,1.033,7.1.036.3.066.578.092.834h-5.926l1.906,37.186a5.315,5.315,0,0,0,5.308,5.043h0a5.314,5.314,0,0,0,5.308-5.043l1.906-37.186h-5.521c.04-.084.079-.163.122-.253.758-1.578,1.808-3.847,2.943-6.623.361-.876.729-1.82,1.1-2.792a16.023,16.023,0,0,0,4.814.374,4.871,4.871,0,0,0,3.406-2.281,2.33,2.33,0,0,0-1.286-3.221c-1.867-.627-4.716,1.493-5.761,2.908-.062.083-.628,1.063-.977,1.688.148-.4.3-.782.445-1.194.3-.812.572-1.631.868-2.512q.194-.644.39-1.3c.14-.432.232-.906.351-1.363.253-1.066.459-2.159.642-3.264a15.317,15.317,0,0,0,4.569,1.051,4.873,4.873,0,0,0,3.713-1.739,2.331,2.331,0,0,0-.783-3.379c-1.751-.9-4.888.762-6.135,2-.078.077-.872,1.068-1.3,1.621.1-.665.212-1.329.3-2.005.242-1.952.427-3.936.621-5.915.058-.605.124-1.209.188-1.813a16.172,16.172,0,0,0,4.724,1.108,4.87,4.87,0,0,0,3.713-1.738,2.331,2.331,0,0,0-.783-3.379c-1.751-.9-4.889.762-6.135,2-.094.093-1.235,1.52-1.508,1.9.141-1.331.294-2.655.5-3.954a40.977,40.977,0,0,1,1.135-5.2c.118.044,3.241,1.223,4.751,1.117a4.872,4.872,0,0,0,3.712-1.738,2.33,2.33,0,0,0-.783-3.379c-1.75-.9-4.888.761-6.135,2-.1.1-1.324,1.633-1.527,1.928.029-.1.048-.2.078-.3a30.065,30.065,0,0,1,2.06-4.921c.448-.876.925-1.689,1.408-2.469a15.679,15.679,0,0,0,4.5,1.582,4.875,4.875,0,0,0,3.881-1.32,2.331,2.331,0,0,0-.407-3.444c-1.641-1.09-4.943.219-6.317,1.316-.075.059-.768.749-1.266,1.259.223-.349.447-.713.667-1.043.823-1.241,1.655-2.326,2.4-3.281.427-.54.824-1.02,1.2-1.464a15.593,15.593,0,0,0,4.7-.669,4.872,4.872,0,0,0,2.836-2.96A2.331,2.331,0,0,0,412.86,275.783Zm-21.68,52.608c-1.183,2.724-2.272,4.947-3.054,6.49-.158.311-.3.587-.431.84h-.131c-.039-.3-.082-.63-.133-1-.239-1.734-.614-4.206-1.2-7.148-.182-.929-.4-1.919-.624-2.934a25.469,25.469,0,0,0,2.693-1.266,17.061,17.061,0,0,0,3.925,2.531C391.873,326.769,391.523,327.607,391.179,328.391Z" transform="translate(-364.593 -271.702)" fill="#c5c5c5"/>
          <path id="Path_266674" data-name="Path 266674" d="M411.313,290.4c.03.02.628-2.3.65-2.447.242-1.742-.313-5.25-2.086-6.107a2.331,2.331,0,0,0-3.171,1.4,4.872,4.872,0,0,0,.842,4.012C408.384,288.556,411.31,290.4,411.313,290.4Z" transform="translate(-373.363 -273.791)" fill="#c5c5c5"/>
        </g>
      </g>
    </g>
  </g>
</svg>
